<svg width="15" height="26" fill="none" xmlns="http://www.w3.org/2000/svg"><path fill-rule="evenodd" clip-rule="evenodd" d="M2.352.255c.187.032.477.15.646.265.155.105 11.017 11.137 11.127 11.302.097.144.206.395.255.584.061.237.061.952 0 1.19a2.177 2.177 0 01-.266.6c-.125.185-10.939 11.166-11.108 11.28-.524.354-1.15.39-1.74.1a1.333 1.333 0 01-.45-.329 1.354 1.354 0 01-.324-.456 1.929 1.929 0 01-.195-.784c0-.322.117-.717.29-.979.049-.075 2.279-2.362 4.954-5.082L10.407 13 5.496 8.003C.682 3.105.583 3.003.493 2.813A1.77 1.77 0 01.492 1.21c.096-.2.152-.279.323-.454a1.35 1.35 0 01.45-.33 1.71 1.71 0 011.087-.17z" fill="#365533"/></svg>