<svg width="22" height="21" fill="none" xmlns="http://www.w3.org/2000/svg"><path d="M2.08.61C3.254-.016 4.75-.163 6.179.183a2.63 2.63 0 011.647 1.193L9.06 3.428c.44.732.567 1.598.355 2.417a3.289 3.289 0 01-1.493 1.98l-1.085.658c-.449.271-.614.687-.51 1.016.367 1.177 1.182 2.482 2.077 3.376.266.268.755.33 1.233.065l.6-.335a3.59 3.59 0 012.632-.33c.44.114.851.311 1.21.58.36.267.66.6.882.98l1.106 1.881c.36.616.42 1.351.164 2.013-.51 1.315-1.491 2.376-2.698 2.907a4.13 4.13 0 01-3.96-.311c-2.058-1.308-4.536-3.51-6.781-7.183C.516 9.419-.056 6.25.008 3.888.05 2.378.888 1.248 2.081.61zM14.704.112a.715.715 0 00-.522-.057.682.682 0 00-.411.311.63.63 0 00-.06.499c.05.167.167.308.326.393l.527.28a11.48 11.48 0 014.084 3.618 10.821 10.821 0 011.862 5.013l.044.412a.633.633 0 00.24.462.696.696 0 00.515.154.712.712 0 00.262-.078.679.679 0 00.21-.17.644.644 0 00.138-.499l-.042-.411a12.105 12.105 0 00-2.081-5.604A12.831 12.831 0 0015.229.391l-.526-.279zm-1.61 3.513a.685.685 0 01.423-.298.715.715 0 01.52.074l.17.097a8.77 8.77 0 012.787 2.51 8.304 8.304 0 011.428 3.395l.06.35a.627.627 0 01-.109.5.676.676 0 01-.452.274.72.72 0 01-.52-.12.666.666 0 01-.273-.439l-.062-.349a7.027 7.027 0 00-1.206-2.872 7.42 7.42 0 00-2.357-2.126l-.17-.097a.676.676 0 01-.314-.403.627.627 0 01.077-.496h-.001z" fill="#365533"/></svg>