<svg width="19" height="18" fill="none" xmlns="http://www.w3.org/2000/svg"><path d="M1.796.523C2.808-.014 4.099-.14 5.333.157a2.276 2.276 0 011.422 1.022L7.82 2.94c.38.627.489 1.369.306 2.07a2.82 2.82 0 01-1.289 1.698l-.936.564c-.388.233-.53.589-.441.87.317 1.01 1.02 2.129 1.793 2.895.23.23.652.283 1.065.055l.518-.286a3.12 3.12 0 012.272-.283c.38.098.734.266 1.044.496.31.23.569.515.761.84l.954 1.613c.312.528.363 1.158.143 1.726-.44 1.127-1.288 2.036-2.33 2.49a3.586 3.586 0 01-3.418-.266c-1.776-1.121-3.915-3.009-5.853-6.157C.446 8.074-.05 5.358.007 3.333.043 2.038.766 1.069 1.796.523zM12.692.096a.622.622 0 00-.451-.05.588.588 0 00-.355.268.536.536 0 00-.052.427.569.569 0 00.282.337l.455.24a9.887 9.887 0 013.525 3.101 9.236 9.236 0 011.607 4.297l.038.354a.54.54 0 00.207.395.603.603 0 00.444.132.616.616 0 00.408-.213.552.552 0 00.12-.426l-.037-.353a10.322 10.322 0 00-1.796-4.803A11.05 11.05 0 0013.146.335l-.454-.239zm-1.39 3.011a.591.591 0 01.365-.256.62.62 0 01.449.064l.146.083a7.552 7.552 0 012.406 2.152A7.092 7.092 0 0115.9 8.06l.053.3a.532.532 0 01-.095.428.612.612 0 01-.626.227.609.609 0 01-.213-.094.573.573 0 01-.158-.166.542.542 0 01-.077-.211l-.054-.299a6 6 0 00-1.04-2.462 6.389 6.389 0 00-2.036-1.822l-.146-.083a.583.583 0 01-.172-.147.549.549 0 01-.11-.417.543.543 0 01.078-.207h-.002z" fill="#004441"/></svg>